<svg xmlns="http://www.w3.org/2000/svg" width="auto" height="auto" viewBox="0 0 1000 1000"><path d="m129 673.6-1 0.7-1.6 1.3-10.4 3.4 7 6.6 2.4 5.2 2 2.1 4-0.5 3.1 1.7 1.7 1.6 1.8 1.7 5 6.1 3.8 5.3 10.2 7.3 3.9 1.6 3.6 0.5 0.5 0.6 1.7-2.3 2.6-3.8 4.6-2.2 5.7-1.8 3.7 1 3.8-0.5 4.8-0.1 3.5 1.7-2.1 0.4-4.6-0.7-3.8 0.5-2.2 1.1-1.6-0.1-3-1.3-4.3 3.3-0.6-0.2-1.3 0.6-1.8 1.6 1.7 9-0.3 1.2 1.7 2.1 1.1 1.4 1.7 1 1.6 3.1 3 1.3 0.9-0.3 0.7-1.4 0.7 0.1 1.9 3.5 2 1.7 1.9 3.1 3.9 1.3 4.1 4.8 1.2 0.4 1.7-0.1 3.5-1.6 0.4-0.2 4-0.3 8.4 3.3 2.4 0.4 3.1 1.1 1.6 0.1 3.8-3.4 0.9-1.6 1.5-1.6 0.1 3.1-2.3 1.8-0.7 1.6 1.6 2 8 1 1.6-0.5 1.3-1.2 1.5-0.5 4.4-4.1 8.9-5.8 0.7-0.7 0.6-0.7 5.6-3.1 4.8-3.8 2.8-3.8 2.2-6.3 1.5-0.5 0.6 1.6 1.2 1.1 0.1 0.1-2.1 6.1 1.1 1.1 0.9 2.1-0.1 1.9-1.1 2.4-2.3-3.9-0.9-0.5-1.3 1.2-4.1 5-2.8 6.3-0.6 2.6-1.5 2.1-1.9 1.3-5 0.4-2.1 2.3-0.5 2.6 0.1 0.2 0.6 1.8 2.6 3.7 5.1 2.3 2.1 2.4 2.1 1 1.6-1.9 0.4-1.6 4.8-2.4 0.3-0.5 5.6-2.4 0.5-1.1 0.7-0.5 0.7 0 1.4-1.5 0.4-1.6 0.5-0.2 0.6 2.3-0.9 1.5-11.6 7.2-1.1 1-0.3 1.7 0.6 1.8 1.5 1.5 4.7 3.9 1.1 2.4 1.2 5.6 0.4 1.5 1.1 2.8-0.7 2.9 0.6 2.9 1.2 1.2 1.3 0.2 1.6-0.4 2.4 0.4 5.6-0.3 8.9 2.3 1.6-1.4-0.4-1.6-4.6 0.6-1.6-0.7-0.4-0.2-0.1-0.7 2.6 0.2 2.4-0.6 0.4-0.7 1.5 0.4 0.9 1 1.1 4.9 1.5 0.9 2 0 1.1 1.1 1 0 1.1-0.9 0.7-1.7 0-2.9 0.5-1.5 0.9-0.6 1.7 0.2 1.1 1.4 2.1 0.4 2.8 1.8 1.7 1.6 3 4.1 0.9 0.6 4.6 0.3 0.7 0.6-1.4 1-2.4 0.3-1.7-0.6-2.1-1.9-1.9-2.7-2.1-1.9-3.3-1.8-1.1 0.2-2.2 4.6-2.1 1-4.4 0.2-2.7-1-6.2 2.2-2-0.1-3.9-0.1-8.6 6.9-1 1.6-1 3-3.3 5.6-4.9 7.1-0.5 2.1 1 1.2 1.9 1.1 0.2 0.1 3.5 4.3 1.9 1 2 0.1 3.7-1.4 4.5-0.5 4.5-0.5 2 0.7 4.9 3.4 3.1 3.3 5.1 2.4 0.4 0.2 4.3 3.8 4 3.3 1.6 0 3.7-2.2 1.7-0.9 2.6-0.3 1.9 0.6 1.2 1.2-0.1 0.9-2.9-1-8.3 3-1.6-0.2-7.1-4-6.6-2.3-9.2-4.8-0.5-0.3-1.5-0.1-1.8-0.2-2.8 0.3 0.9-1.6-0.9-0.6-2.1 0.1-1.8 0.5 0 2.1-11.3 1-1.3 1-6.6 4.5-3 0.2-2.1 0.7 0.9 0.6 9.5 1.1 4.5 0.9 13.5 2.4 5.8 1.5 20.3 6.9 3.3 1.2 12.4 4.3 22.6 9.1 5.2 2 5.6 1.6 6.1 2.9 16.6 6 4.9 2.1 8.5 3.8 29.7 11.5 11.9 4.6 2.9 1.2 23.3 9.9 5.4 2.3 21.2 10 10.5 5.3 9.2 4.8 26.2 15.5 0.2 0.1 4.9 3.3 3.4 3.8 5 6.2 3.8 4.7 1.4 0.3 2.7-1.7 5.7-1 2.8-1.5 2.2 1.8-6.5 6.2-1.5 1.1-1.7-0.2 0 0.6 12.3 4.3-2.2-0.2 6.2 1.4 5.8 2.8 5.7 2.8 6.2 2.1 4.3-0.2 3.3 1 2.9-0.7 4.1-3.9 4.1-0.6 2.6 0.4 1.6-1.5-2.3-4.1-0.6-2.4 3.2-2.3 1.2-1.8 0.3-3 0.3 0 3.9 0.4 1.1-1.2 1.5-4.6 1.6-0.9 2.4-0.2 2.9-3.3 0.1-3.2 1.7-6.8-0.6-1.5-2.8-3-0.1-1.6 1-1.6 1.2-0.9 0.4-0.3 0.5-0.2 1.6-0.4 8.5 1.1 0.5-4.8 0.5-1.5-1.7-7.9 0.1-1.4-3.4-2.8-2-3.3 1.5-1.4 1.7 0 2.4 1.1 1.2-0.2 0.6-1.8-1.2-2.3 0.9-1.5 3.4-1.7 0.5-3.4 1.7-2.3-0.3-1.9 1.1-2.3-0.7-2.2-1-1.3 1.6-2.2 1.4 0.4 1 1.3 2 0.1 1 1.2-2 2.4 1 0.6 1.2-0.2 1.6-1.8 0.6-4.1 2.1-3.8 1.7-2 1.5-0.3 2 0.7 2.3 0.1 1.8-1.5 1.7-1.3 2.9-0.1 1.1-1.3 2.8-0.2 1.3-1.3 2.8 0.7 4-1.2 3.5-2.4 2.7-0.2 1-0.9 0.3-0.7-1.3-2.8 1.6-2.4-0.1-2.6 1.7-2.2-0.2-1 0.7-1.3 4-1.4 2.9-3.6 2.2-1 0.2-4.6 1-2 3.7-4 1.6-3.2 0.9-0.5 2.4-1.7 3.2-3.2 1.9-3.2 1.7 0.2 4-1 3.3-1.9 3.1-1.1 0.3-0.1 4-3.3 2.1-3.3 2.1-1 0.5-2.2 2.4-0.5 0.7-0.9 3.9-1.8 1.5-2.2 8.5-6.8 1.4-1.3-0.5-1.6 0.4-0.3 3.2-2 3.7-3.5 4.6-2 1.3-1.9 1-0.2 0.6 0.4 1.8 3.1 1.8-0.1 2.3-2.4 1.9-0.3 1.9-1.1 3.5-3.5 5-2.1 0.1-0.1 1-0.4 5.6-3.5 2.4-2.1 1.1-2.1 1.5-1.4 0.3-2 3.7-0.1 2-3.3-1.3-1.7 1.7-1.7 0.7-1.8 0.2-0.6 5.8-0.1 1.1-1.3 0.2-1.6 1.1-6.4 1.8-2.7 3.7-4.9 1.6-0.5 5.8-5.2 2.4-4.3 3-2.4 2-2.7 1.7-3.2 0.3-0.6 4.1-3.4 3.2-5.7 2.9-3 7.1-3.1 1.6-1.5 0.9-1.9 1.2-0.7 3.5-0.3 4.1-1.2 8.1-1.3 0.1-40.9 0-11.4-719.3 0 4.8 2.6-2.2 0.5-2-0.7-4.1-2.3-28.4 0zm131.2 70.1-3.7 1.8-3.8 3.4-0.4 1.4 0.7 1.2 2.1-0.4 3.7-1.6 0.9-1.6 0.9-3.5-0.3-0.6zm-176.5 13.2-2 0.3-1.8 1.2 0.3 1.4 4.6-1.7 0-0.5-1.1-0.6zm11 4.5-3 2.7-1.4 0.4-1.5 2-0.9 0.1-2.2 1.7-0.9 0.1-1.6-0.9-0.3 0.7 0.3 2 0.6 1.2 3.7 1.7 2.7 1.3-1.2-4.1 0.4-2.1 2.8-3.4 4.6-1.7-0.7-1.2-1.4-0.5-0.1 0zm153.8 1-1.2 0.2 0.3 2.6 2.2 4.3 2.1 2.4 4.8 1.7 1.3-0.6-0.4-3.4-3.7-2.9-1.2-0.1-4.3-4.1zm-143.2 5.4-2.2 1.8-0.2 1.1 0.3 0.4 1.6 0.5 2-2.2-0.6-1.3-0.7-0.3-0.1 0zm118 0.2-10.4 1.8-7.7-0.9-3.6 0.5-2.9 2.2-1.2-0.2-4.6 2-0.7-1-1.9-0.2-6.9 1-12.8-1.7-3.8 1.4-1.6 1.8-2 0-1.5-1.1-1.9 0.2-4.3 2.4-1.1-0.2-4.4-0.6-4.9 0.1-13.2 5.3-2.6 3.3 0.4 0.4 1.8 1.6 3.4 0.7 1.5 2.6-3.8-1.1-5.3 0.5-6.9-0.9-3.3 2.4 1.2 0.5 4.6 0.2 13.6 2.7 1.1 0.2 19 4.8 5.5 2 10.4 2.7 4.6 1.7 2 0.6 4.6 0.6 7.2 1.9 13.1 4.4 12.2 4.8 13.6 5.3 6.6 3.9 3.3 2.6 2.6 3.5 1.9 3.9 0.1 3-0.4 2.9-0.2 1.2-0.7 1.6-1.8-2.3 0.7 3.9 0.4 1.4 4.9 1.1 4.7-0.1 3.3-1 0.3-3.1-0.3-1-0.7-2.1-0.4-3.5 0.4-6.7 0.3-4.4 1.1-3.5 5-5.7 3.3-2.7 1.6-2.9 0.6-2.4-1.1-2.6 0.3-2-0.5-2.8-5-5.7-0.1-0.2-0.6-2.1-2.6-0.6-1.8 1.6-1.2-0.1-2.1 3.8-0.6 0.6-2.6 0.9-0.9 1.7-0.7-0.5-0.4-1.8 0.6-3.3 1.1 0 1 1 1.7-0.1 1.4-2.4 1.8-1.8 3.3-1.1 2 0.5 2.9 3.9 1 0.3 1.6-1.2 2.6-4.5-0.5-1.5-2.3-2.3 0.2-0.5-2-2.1-3.7-2.9-3.6-2.8-1.3 0.1-3.9-2.1-4.4-0.7-3.9 0.3-4.4 2.2-2 4.5 0.7 1 1.4 0.2 0.3 0.5-1.9 0.1-1.1-0.5-0.4-1.5 1.6-3.7-0.5-1.2-0.7-0.1-0.4 0.4-0.4 2.3-1.5 1.4-0.9 0.1-2-2.4-0.5 0.7-1.6-0.1-0.1-1.7 0.4-1.3 1.5-0.1 1.6 2.6 1.5 1 0.4-0.1 0.2-2.2 2.2-2.1 2.7-1.7 2.7-1-0.3-1.2-3.8-4.4-3.6-0.3-9.5-1-0.1 0zm44.3 6.7-3.1 0.3-1.1 0.5 0.3 0.7 7.1 3.8 0.7-2.3-0.1 0-1.3-1.9-2.7-1.2zm-167.6 5.1-0.9 0.5-0.1 2.8 1.7-0.2 0.7-0.9 0.5-1.3-0.5-0.7-1.5-0.2zm171.5 1.9-1.3 1.6 1.7 2.9 0.6 0.2 0.5-1.1-0.7-2.6-0.9-1.1zm-168.8 1.4-3.5 1.8 0.9 0.3 2.2-0.2 0.5-0.6-0.1-1.3zm4.7 1-0.4 1.5-1.7 1.1-0.9-1.9-2.2 2.2 10.1 4.8 1.9-3.4-1-3.5-5.8-0.7zm163.7 13.5-0.1 1.4 3.1 6 1.5 1.3 1.3-0.1 1.9-3.2-0.4-2.8-7.2-2.6zm-3.5 1.1-1 1.1-0.3 2.2 0.5 1.2 1-0.1 0.4-3.6-0.6-0.7zm1 4.3-0.2 0.7 0.9 1.8 1.2 1.5 0.9 0.2 0.1-0.9-1.6-3.2-1.2-0.2zm-1.5 4.6 0.2 6.5 0.9-1 0.7-2.9-1.7-2.7-0.1 0zm1.5 23.7-0.7 1.2 0.4 1.4 1.2 1.4 2.3 0.4 0.2-0.6-0.5-1-0.6-0.3-0.7-1.3-1.5-1.2zm20.7 6-1.2 1.1 1.5 0.7 1.9 0.1 0.4 1.8 1.5 0.4 1.6 0.4 6.5 3.5 5.3 2.3 0.7 0 0.7-0.1-1.4-1.7-5.3-1.5-2.1-2.9-6.6-4.3-3.6 0zm277 142.9-1.6 0.1-1.9 1.1-0.2 0.9 1.6 0.5 1.1-0.7 1.1-1.8zm11.6 13.5 0.3 0.5 10.6 5.6 1.4-0.2-1.6-2-7.3-3.1-3.4-0.9z" fill="#0072c6"/><path d="m5.4 333.4-0.7 2.9-0.1 4.5 1.1 1.7 2.8 0.4 4.3 0.7 1.3-0.7 1.9-2.2 2.2 0.3 2.4 2.6 0.9 1.5 0.5-0.1 1.1-1.4 1.3 1.2 2.2 1 1.9 1.3 6.8 4.8 0.6 0.7 0.3 1.4 2.2 2.3 3.9 1.1 1.4-0.2 2.6 0.5 1.1 1.3 2.8 4.5-0.7 0.4 0.3 1.1 3.1 5 2.9 0.1 2.8 4.8 0.2 0.2 0.3 0.7 1.2 2.7-4.1 1-1.9-0.9-5.1-0.4-3.1-1.7-1.2 0-0.2 0.7 1.8 1.9-0.5 1.1-1.4-0.7-3.9-3.7-4.7-2.2-2.4-0.2-3.7 4.8-2.7 1.2-0.9 0.3-2.2 2.8-2.1 1.7-1.8 8.6 1.1 4.4-0.2 3.6 2.9 21.3 0.1 1-0.4 1.2-0.7-1.4-0.5-3.4-0.9-1.5-0.5 1.9 0.7 5.2-0.7 5.5 0.1 4.4 1.7 6 3.3 3.7 1.5 1 1.2 1.6 2.8 3.6 1.5 3.2 2.4 9.9 1.5 3 2.7 4.9 5.1 7.2 2 2.1 1.5 0.6 0.4 0.4 1.5 1.5 1 0.5 1.6 0 2-1.8 1.9-3 0.4-2.2 0.1-2.7 1.2-1.1 0.9-2.3-0.3-1.6 0.2-2.4 3.4-4.9 2.3-5.7-0.1-1.1-2.3-2.3 3.6 0.9 1 0.7 2 0.4 2 1.2-1.1 0.9 0.2 1.3 2.6 3.9 1.3 0.5 4.4-0.2 1.2 0.9 1.2 1.9 1.4-0.2 1.2-0.9 4-4.5 3.4-0.9 3.5-3.2 0.9 0.1-0.7 2.2 0.7 0.7 2.8 0.1 0.1-0.1 3.8-2.4 2.6-0.1 3.1 0.7 4.1 2.2 1.7 0.3 1.7 1.2 3.4-0.4 1.4 1.1-3 0.9-0.7 1 1.5 1.4 1.7 0.2 1.9 2 1.9-0.2 1.9 1.7-2.7 2.8-3.8-0.4-4.1 0.6-2.1-0.6-1.5 0.4-1.7-2.1-1.3 1-4.7 0.1-3.8 2.1-1.7-0.1-3.7-2.7-1 1.7-0.4 2.7-4.7 4.5-0.3 0.1-1.3 0.7-2.2 3.3-3.1 7-1.3 1.1-3.4 0-0.9 0.4-1.5 2.6-2 0.9-2.2 0-1.6-0.1-0.7 0.7-1.2 4.4 0.2 1.6-1 1.8-1.1-1.3-1 0.3-1.5 1.5-2.6 1-1.3 1.4 0.1 3.1 2.2 2.4 11.3 4.1 2.6 0.4-1.4 2-1.2 1.7-0.9-1.5-3 0.4-1.2 1-1.4-1.2-3.5-1 0.9-1.1-0.4-0.7-2.7-1.9-2 0.3-1.9-0.7-2.6-3.2-2.6-4.5-1.5-1.4-1.5-0.3-1.5-3.5-2.7-1.9-2.1-1.7-0.3-1-3.9 0.1-1.6-1.5 0.4-1.3-1.5-0.7-0.2 0-0.9-0.2-1 1.2-1.3-1-2.4-0.2-1.4 0.6-1.2-0.5-3 1.5-1.2-1.7-0.7-0.2-1 0.5-0.2 2-0.9 0.6-0.7-0.1-1.3-3.2-2.4-0.6-0.9 1.5-2.7 4.9-0.1-3.4 0.4-1 1-0.6-0.9-0.7-1.8-0.4-1.4-1.1-2.6 0-0.5 1.1 6.3 11.5 0.1 1.7-0.7 4.4-0.7 1.3-0.9 0.2-1.1 0.2-1.2-0.9-0.5 0.9 0.9 5.1 0.4 0.3 1.5-0.6 3.3 3.7 0.3 0.4 3.6 6.5 0.3 2.2 5.4 5.2 1.9 3.7 1.1 1.3 1.3 0.4 0 0.2 0.1 1.1 1.6 0.6 2.2-0.4 1.7 1.5 2 0.3 1.9 1.1 0.9 1.7 1.6 6.2 0.5 1.1 1.1 1-1.3 1.6 2.3 2.4 1.2 2.2 1.6 0.7 3.1-1.7 1.6-0.1 0.9 0.7-2.2 0.9-0.1 0.2-0.6 1.3 0.6 2.3-2.1 4 0.7 0.9 1.8 0.3 0.4 1.1 0.4 2.9-0.9 1.2 1.4 2.1 1.3 6.4-1 3.3-0.9 0.7-0.7 3.4 0.1 3.5-0.5 2.2 0.3 0.9 0.7 0 1.4 0.1 3.3-3.1 2.2-1.2 3.6-4.1 4.1-1 6-3.9 4.6-2.1 1.8-3.2 2.2-1.8 4-1.4 1.5-0.5 1.5 0 1.2 0.1 2.4 0.9 2.1-0.3 2.9-1.2 1.5 0.2 2.7 1.3 4-0.5 3 5.2-1.3 3.1 0.2 1.5 4.6 6.4 2 1.2 1.1 1.6 3.5 2.9 2.3 3.5 0.9 0.5 6.4 10.6 0.9 1.8 0.1 0.4 0.1 1.4 1.4 3.3 2.3 1.3 0.2 3 2.2-0.4 1.9 3.6 0.3 1-0.9 1.5-0.5 2.6-0.6 11.3 1.3 4.6 6.4 5.5 0.4 1.2 0.3 6.5 2.8 5 8.3 4 10.5 5.6 719.3 0 0-2.6 0-19.8-0.7-10.4 4.1-1.7 2.7-0.6 2.8-1.5 2.9-2.9 14.2-23.4 3.1-3.2 4.4-2 4.5-0.6 9.5-1.3 2.1 0.2 4.9 3.3 1.5 0.2 6.5-0.3 5-0.2 4-2.4 1.9-0.5 2.3 0.2 1.3 0.9 1.9-0.5 3.5-3.6 4.5-1.6 2.1-5.7 8.3-7.7 1-6.4-0.3-4.6-3.4-5.7 0-1.3-0.2-2.4 1.8-20.6 1.1-4.3 1.1-2 3.8-4.7 0.3-0.2 1.6-4.7-2.3-9.7-0.2 0 2.3-19.5-0.7-6.2-5-1.3-6.4-3.3-3.2-1.3-1.3 0.6-3.7 1.6-2.1 1.4-3.4 1.2-2.9 0.3-4.3-1.8-1.2 1.6-1.4 3.8-2.4 3.4-2.3 5-2.9 3.2-2.7 1.4-1.9 2-4.7 8.6-2.2 2.7-3.5 2-0.4 0.2-2.1 3.8-4.1 3-2 3.9-7.1 6.3-2.9 1.7-10.5 7.5-2.4 0.9-2.1-0.7-3.9-0.2-1-1.2-1.3-4.7-3.5-2-11.7-0.7-7.7-2.1-2 0-3.6 0-4.5 6-1.2 4.8-2 1.5-0.7 3.2-0.2 6.6-4.4 0.9-1.6-0.1 0.6-2.3 1.6-1.4-1.4-7.2 3.4-6.5 1.3-2.7 0.7-4.8 1.2-3.9 1.4-1.4 5.4-2.3 1.9-1.3 1.6-2.3 2.6-1 1.2-0.9 0-0.6 0.3-3.4-0.4-5.2-1.3-2.6 1.4-5.5 0.4-1.3-0.1-3.5 0.1-0.5 0.4-1.3 0.2-4.9 0.7-0.6 1.6-0.4 1-1.2-0.1-1.3 0-1.8 0.5-0.3 2.4 1 0.4-1.3-1.2-3.1 0.6-2.7 2.2-6.4 0.6-3.2 1.5-0.5 3.3-0.9 1.8-1.2 2.4-4.9 1.5-1.5 2.3-0.7 0.6-1.2-0.4-5.3 1-1.4 1.2-0.4 3.1 0.4 2.2-2 2.1-0.9 0.4-0.2 2.4-2.1 4.3-0.4 1.6 1.1 1.1-0.1 2.3-2.6 4.4-2.1 1.3-2.2 5.4-2.1 0.9-0.9 0.2-1.9-1.1-1.9 0.9-2.4 3.2-4.8-2-2-2.3 0.2-0.7-3-3.1-4.1-5.3-2.4 1.2-1.9-1.7-2.3-1.8-2.3 2.4-1.8-0.4-1.2-3.8 0.5-0.7-1.2-0.6-5.2-2.8-5-8.7-6.9-1.5-2.4-1.1-0.1-1.9 1.1-0.4-0.4-0.7-0.7-1.2 0.1-1.2-1 0.5-4.4 0.6-1.3-1.4-4.3 0.3-1.7-2.1-11.3-1-4.9 1.2-6.2-0.1-2-0.1-3.7 0.5-2-1-1.7-1.1-6.9 0.3-1.4-0.4-3.4 0.2-1.3-876.8 0zm25.4 21.1-2.8 0.3-3.5 1.6-1.3 1.5 0.1 1.5 3 4.3 1.1 0.6 2.2-0.3 6.1-3 1.2-1.2-0.7-0.9-2.1-0.9-1.9-3-1.3-0.6zm16.2 9.5-0.7 0.2-0.4 1 1 1.4 2.8 2 0.6-0.7-0.6-1.3-2.6-2.6zm18.2 95.5-3.7 5.8-0.9 1.9 0.4 1 1.7-0.2 3.6-4 0.9-1.9-2-2.6zm31.2 2.2-1.9 0.9-1.1 1.2 0.6 1.3 0.9 0.6 1.6-0.1 1.7-1.3 0.3-1.1-0.9-1.1-1.3-0.4zm10.8 1-2.4 1.2-4.7 0.9-2.8 2 0.2 0.6 1.3 0.3 2.6-0.7 1.2-0.9 2.3-0.1 1.3 0.9 1.5 0.2 2.3-0.6 3.9 0.1-0.1-0.7 0.1 0-1.4-1.8-1.7-0.3-1.5-1-2.1 0zm-41.6 4.6-0.7 0.1-1.4 2.1 0.2 0.9 0.7 0.3 1.3-0.5 0.6-1-0.2-1.4-0.5-0.5zm10 0-3.2 1.5-0.2 1 1 2.9-1 3.4 0.9 1.5 0.6 0.4 4.7-2.9 1.1-0.2 0.9 1.1 1.4-0.7 1.3-1.6-2.2-1.6 0.6-3-0.9-0.9-4.9-0.9zm-15.4 2.2-0.6 2.1 1 0.7 1.1-0.2 0.5-0.9 0.1-1-0.7-0.9-1.3 0zm2.4 3.6-1.8 1-0.9 1.2 0.1 1.6 0.7 0.2 1-0.9 1.4-1.7 0.1-1-0.6-0.4zm-4.4 2.4-1 0.6 0 2 0.4 0.6 0.9 0.3 0.4-1.1-0.7-2.6zm-20.3 130.6-2 1-1.7 2.4-4.8 3.5-1 2.1-3.2 1.4-0.2 0.1-1.4 1.2-1 1.9 0.5 0.5 5.2-1.6 0.9-2.8 3.2 0 0.9-0.7 0.5-3.1 1.1-0.3 0.7-1.3 1.3-0.4 0.6-1.1 0.3-2.9zm101.4 62.6-5.6 1.2-4.8 3.8 28.4 0-2.1-1.2-9.4-3.2-6.5-0.6z" style="fill:#fff;stroke-width:2;stroke:#0072c6"/><path d="M684.1 0.9 669.7 1.1l-20.3 0.4-1.7 0-41.5-0.3-11.2-0.1-5.6-0.1-1.1 0-20.2 0.4-3.3-0.3-0.6 0-2.9 0-1.8 0.1-7.9 0.4-12.7-0.4-15.6 0.3-7.9 0.1-3.1-0.6-11.1 0.9-19.3 0-18.6 0-1.9 3.6-2.2 13.2-2.8 3.2-1 0.3-2.8 0.7-2.3 1.2-3.9 0.9-29.7 9-0.9 0.1-5.1 1-4.6 2-5.8 1.2-0.9 0.6-7.9 2.4-4.4 1.4-2.1 0.1-5-1-3.6-1.8-1.3-0.7-6.7-4.9-8.9-3.2-2.6-2.2-0.7-1.6-2.4-1.8-1.5-0.1-12.1 2.8-7.4 1.7-0.6 0.7-20.7 4-4.1 0.2-1.7 1-5.5 1.2-1.8 0.4-12.3 2-1.9 1.4-2 3.6-2.9 3-1.5 0.7-7.4-0.2-6.2 3.8 0 1.4-0.5 1.5 0.3 0.9 1 0.7 1.4 0.3 0.7 1-0.4 4.8-1.9 0.3-1 0.7-0.4 6.2-3.2 4.6-0.3 3.7-2 2.3 0 0.7 3.2 1.5 0.4 1.2-0.6 1-4.5-0.1-0.9 0.5-0.6 1.7 2.8 7.2 0 0.9 0 1.4-1 0.6-1.1-0.2-1.1-1-1.5-3.6-0.9-0.2-1.3 1.3-2.4 2.6-3 1.8-3.2 0.2-0.7 3.4 0.3 2.8-0.5 2-1.5 2.4-0.4 3.3-1 0.5-1.6-1.7-1.3 0.1-0.7 0.9-0.6 2.1 1.2 3.8 0.7 2.2 0 1.3 0.1 0.9-1.8 5.3-0.3 4-0.2 0-2.4-0.2-4.9-1.8-2 1.7-0.9 2.6-2.2 6.8-1.8 2.2-0.1 1.4 1.3 2.8-0.5 1.4-2.8-0.4-1.7 0.5-3.1 2.9-1 2.3 0.6 0.1 2.3 2.3 0.6 2.6-0.4 2.6-7 10.8 0.2 2-0.4 0.7-1.9 1.1-0.2 1.2-0.3 3.1-1.2 2.4 1.3 1.4 0 1.2-1.8 1.5 0.6 3.1-0.9 1.2-0.2 1.7 0 1.1-0.7 0.5-0.7-0.2-2.3-2.7-1.6 0.2-1.8 1.5-0.7 3.1-0.3 3.9-1.6-0.3-2.2-1.6-9.2-0.4-1.8 2.7 0 3.7 0.4 3.5 1.6 3.4 0.3 2-0.9 1.5-1.2 0.9-6.5-0.1-0.6 0.9 0.1 2.1-1 3.1-1.2 2.3-1 0.3-0.5 1.1 0.4 2.8-0.4 1.1-1.5 1.1-4 1.3-1.8 2.2-1.4 0.3-0.2-0.2-2.6-1.5-2.1 0-3.1 1.8-1.2-0.5-4.1-2.9-3.6 0.2-1.5-1-1.1 0.5-1.6 6.1-3.8 2.4-2.6-0.2-5.1-3.7-3.3-1.3-2.8-0.1-2.2 2.9-0.6 0.7-2.8 8.5-2.1 4.6 1.6 14.8-0.6 2.6-4.6 3.4-1.1 2.1 0 2-2.4 8.6-2.2 4-1.3 2.3-3.4 5-3.2 2.1-2.1 1.1-5.7-0.2-2.4 0.5-2.3 1.3-2.4 7.9-3.6 2-3 0.6-3 0.6-6.5-0.4-5-2.7-9.2-9.1-3.7-1.8-3.6-0.3-1.8 0.7-2.9 1.8-6 3.9-2.9 0.3-6.7-1.3-3.7 0.1-6.6 2.6-2.8 1.7-1.7 1.8-2.2 1.3-3.9 3.6-2.3 1.3 4.8 9.5 1.1 3.4-0.2 1-1.4 5.6 876.8 0 1-7.2 0.2-1.1 0.7-2 1.4-1 0.5-1.3 0.2-5 0.5-1.5-0.3-2.2-1.6-2-1.4-1.8-6.2-3.8-1.4-0.4-1.6-0.5-0.2 0.6-3.4-0.6-8.8-3.9-4.8 0.1-10.7 1.9-7.1-1.2-1.2-1.7 0.4-1 0.6-1.4 1.3-8.2 0-4.7 3.8-4.1 0.1-6.4-3-6.5 1.6-4.6 1.7-0.3 0.4 0.7 1 1.4 4.4-0.6 4-1.5 1.2 0 3.6-1.6 1.5-2.1-0.2-5.4 0.3 0-3.7-4.1-0.2-3.5 1.5-5.1 1.2-2.9 1.9-5-0.6-3.4-1.7-2.9-6.7-5-5.8-1.8-1.4-1.5 0.4-1-0.2-3.5-4.6-7.5-2-2.8-2.3 2-0.9-0.4-2.3-3.1-3.8-0.4-3.3 1.5-3.2-0.5-1.1-0.7-2.1-1.5-3.1-0.2-1.7 3.2-1.7 0-1.6-1.8-0.6-1.8 1.4-3 2.6-2 0.9-2.2-1.5-1.9-3.1-1.8-3.6-3.1-2.8-1-2.4-1.5-0.2-0.3-1.6-3.6 0-2.2 2.4-3 0-1.8-2.3-4.8 0-1.4 1.2-1.8 4.6-2 1.5-2.3-0.4-1.2-1.1-0.9-8.5-1.3-1.2-0.9-4.3-3.4 1.2-1.8 3.6-3.1-0.1-1.8-6.2-5.1-5.6-6.5-2.8-0.2-2.3-2.4-0.4-4.3-0.7-5.8-2-2.8-0.2-2.8-1.6-1.5-2-0.6-3.6 0.1-3.5-0.5-2.7-2-1.6-3.1-1-7.9-1.1-2.7-1.2-2.6-2-3.6-6.6-8.4-2.8-2.8-8.5-12.5-3.3-3.2-6.8-6.6-8.6-5.7-0.3-0.7-14.8-6.9-3.3-2.9-0.4-0.4-1.9-3.6-1.5-7.2-0.9-10.4-1.4-7-1.2-3.1-6.5-5-3.6-2.9-0.2-0.1-0.1 0-0.1 0z" style="fill:#1eb53a;stroke-width:2;stroke:#1eb53a"/></svg>